<svg version="1" xmlns="http://www.w3.org/2000/svg" width="533.333" height="533.333" viewBox="0 0 400.000000 400.000000"><path d="M142.4 31.7c-1.6 3.8-4.4 16.9-3.8 17.6 1 1 1.2 28.7.2 32.9l-1.1 4.8H131c-7.7 0-13.3-1.9-15.6-5.4-1.1-1.8-5.6-21.5-6.4-28.4-.1-.9-6 .1-6.9 1.1-2.4 2.9-3.2 20.2-1.2 27.3 1.4 5.2 7 11.7 12.4 14.3 2.3 1.1 7.6 2.5 11.7 3.2 4.1.6 8.2 1.3 9 1.4.8.2 2.2.4 3.2.4 1.3.1 1.5.9 1.1 4.3-.8 6.1-1.8 7.5-5.9 8.3-11.7 2.1-24.5 12.6-28.4 23-5.9 16.1-8.2 32.5-6 43.9 1.5 7.9 2.9 9.2 8.8 8.7 2-.2 4-5.9 4.7-13.6.4-3.9.8-7.9 1-9.1.2-1.1.6-5.2 1-9 1.5-15.1 6.7-23.7 17-28.5 8.1-3.8 7.5-6.2 7.5 32.8 0 34.7.1 37.7 2.1 46.4 1.1 4.9 3.4 6.8 7.6 6.1 4.6-.7 5.1-7.1 5.2-64.9l.1-23.2 3.8.6c9.6 1.6 16.8 7.6 19.5 16.4 1.5 5.2 1.8 6.9 3.2 18.4.3 2.7.7 6.1 1 7.5.2 1.4.7 4.3 1 6.5 1.3 10.3 1.7 11.6 4 13.1 2.7 1.8 6 1.1 7.4-1.5 3-5.5 3-25.2.1-36.6-2.5-10-7.8-21.3-12.2-26-3.9-4.3-7.7-6.4-17.3-9.4-10.2-3.2-11.2-4.1-11.1-9.2l.1-4.4 6.7-1.2c3.7-.7 10.6-3.1 15.5-5.5 8.5-4.1 8.9-4.5 11.8-10.3 3.8-7.7 4.5-16.6 1.8-24.4-2.1-6.1-4.3-8.2-7-6.5-3.6 2.3-5.2 5.9-5.8 13.4-1 11.1-3.9 16.6-10.3 19.1-3.4 1.3-11 1.1-11.9-.4-.4-.6-.8-11.8-.9-24.7-.2-29.9 0-27.7-2.9-30.5-3.4-3.5-5.3-3.1-7.1 1.2zM256.8 56.5c-.2.2-3.6.5-7.7.6-17.7.6-26.9 4.6-30.7 13.6-1.6 3.7-4.2 17.7-5.2 28.3-.9 9.4-.7 37 .3 43 1.3 8.3 5.6 19.4 10 26.1 4 5.9 5.2 6.9 11.2 9.6 11.5 5.1 22.1 5.8 33.5 2.3 6.7-2.1 16.7-8 20.5-12.1 2.8-3 6.8-13.6 8.2-21.5.6-3.2 1.3-7.5 1.6-9.4.9-4.8.9-28.1.1-36-3.8-36.6-7.7-42.1-30.6-43.6-4.7-.3-9-.7-9.7-.9-.6-.2-1.3-.2-1.5 0zm15.4 15.4c5.3.3 10.2 9 11 19.6l.3 4-27 .1c-14.8 0-27.5-.2-28.1-.4-1.2-.3-1.1-8.5.1-14 .8-3.7 5-7.8 9.5-9 2.7-.8 23.4-1 34.2-.3zm11.8 48.3c0 7.1-.3 9.8-1.2 9.9-2.1.2-22.1.7-38.8.9l-15.5.2-.3-10.4-.3-10.5H284v9.9zm-2.3 25.7c1.6.1-2.9 12.6-5.5 15.4-5.2 5.8-16.6 7.7-30.3 5.1-9.1-1.7-11.8-4.1-14.7-13.2-1.2-3.8-2.2-7.2-2.2-7.6 0-.5 41.7-.3 52.7.3z"/><path d="M158.2 200.2c-.5 1.8-.8 6.2-.7 9.7.1 3.5-.2 7.9-.7 9.7-1.2 4.7-9.2 11.5-28.1 24.2l-16.3 11-1.6 5.3c-8 25.3-4.6 42 9.9 49.6 6.7 3.5 33.3 7.2 48.2 6.7l9.5-.3 3.5 4.2c10.1 11.9 20.3 20.7 38.6 33.1 23 15.6 29 18.9 35.2 19.2 5.9.3 8.2-.8 7.6-3.8-.9-4.7-.9-4.7-41.7-32.3-4.9-3.3-10-6.9-11.3-8l-2.5-2.1 5.2-4.7c2.8-2.6 6.1-4.8 7.3-4.8 1.2-.1 3.6-.2 5.2-.4 1.7-.1 8.7-.5 15.7-.9 6.9-.4 13.7-.9 15-1.1 1.3-.2 4.1-.6 6.3-.9 10.7-1.6 17.5-4.3 22.3-8.9 12.7-12.2 10.7-39.6-4-54.6-1.8-1.9-11-8.6-20.5-14.8-9.5-6.3-17.5-12.2-17.8-13.2-.3-1.1.3-4.3 1.5-7.2 2.6-7.1 2.6-11.2-.2-14.2-2-2.1-2.8-2.4-5.4-1.6-3.5 1-4.1 2.2-7.5 13.9-2.6 9.2-2.7 11.6-.3 16.5 2.2 4.7 11.3 14.2 15.1 15.6.5.2 7.3 4.2 15 8.8 15.1 8.9 16.1 10.1 18.1 19.6 1.5 7.5-.3 17.1-4.1 21.2-3.7 4.1-16.8 6.8-35.6 7.2l-11.4.2.6-3.3c.4-1.8.9-5.6 1.2-8.3.3-2.8.8-6.1 1-7.5 3.2-17.8 2.2-32.7-2.5-37.8-1.8-1.9-2.4-2-4.3-1-4.4 2.3-5.3 5-6.2 19.8-.3 4.1-.7 11.3-1.1 16-.8 13.6-3.8 21.7-10.6 29.2-8.4 9.4-15.3 5.4-21.4-12.4-3.8-11.3-5.4-18-5.9-26-.3-4-.8-10.1-1-13.6-.3-3.5-1.4-8.1-2.5-10.3-2.1-3.9-2.1-3.9-5-2.4-1.6.9-3.7 2.6-4.5 3.9-2.2 3.4-2.4 15-.4 26.3 1.7 9.9 2.5 14.3 3.4 21 .3 2.1.8 4.4 1.1 5.2.3 1.1-2.5 1.3-16.3.9-16.8-.4-16.8-.4-23.8-3.8-8.4-4.2-9.9-6.6-10.2-16.4-.2-7.2 1.9-12.9 6.5-18.2 1.6-1.9 20.4-16.5 26.2-20.4 7.2-4.8 14.9-11.2 16.4-13.5 2.3-3.5 3.1-19.2 1.3-24.5-1.2-3.3-6.6-8-9.3-8-.7 0-1.7 1.5-2.2 3.2z"/></svg>